# xmcd
#
# Track frame offsets: 
#        150
#        15317
#        28909
#        43673
#        60102
#        80386
#        94472
#        111307
#        129387
#        146950
#        164736
#        186721
#
# Disc length: 2652 seconds
#
# Revision: 2
# Processed by: cddbd v1.5.2PL0 Copyright (c) Steve Scherf et al.
# Submitted via: ExactAudioCopy v1.1
#
DISCID=ab0a5a0c
DTITLE=Amel Bent - Delit mineur
DYEAR=2011
DGENRE=R&B
TTITLE0=Delit
TTITLE1=Toi
TTITLE2=Je reste
TTITLE3=A quoi tu penses
TTITLE4=Les chansons tristes
TTITLE5=Si j'en crois
TTITLE6=Il marche
TTITLE7=C'est arrive aujourd'hui
TTITLE8=Tu fermes les yeux (ft Melissa Moon)
TTITLE9=Je me l'interdis
TTITLE10=Je dois savoir
TTITLE11=Mineure
EXTD=
EXTT0=
EXTT1=
EXTT2=
EXTT3=
EXTT4=
EXTT5=
EXTT6=
EXTT7=
EXTT8=
EXTT9=
EXTT10=
EXTT11=
PLAYORDER=
